<svg viewBox="0 0 900 420" xmlns="http://www.w3.org/2000/svg"><rect width="900" height="420" fill="#111111"/><text x="450" y="40" text-anchor="middle" font-family="Segoe UI" font-size="20" fill="#ffffff">MoCKA System Architecture</text><rect x="350" y="70" width="200" height="70" fill="none" stroke="#2962ff" stroke-width="3" rx="10"/><text x="450" y="110" text-anchor="middle" font-family="Segoe UI" font-size="16" fill="#ffffff">MoCKA Core</text><rect x="80" y="190" width="220" height="80" fill="none" stroke="#00bfa5" stroke-width="3" rx="10"/><text x="190" y="235" text-anchor="middle" font-family="Segoe UI" font-size="16" fill="#ffffff">Knowledge Gate</text><rect x="340" y="190" width="220" height="80" fill="none" stroke="#ff9100" stroke-width="3" rx="10"/><text x="450" y="235" text-anchor="middle" font-family="Segoe UI" font-size="16" fill="#ffffff">Transparency</text><rect x="600" y="190" width="220" height="80" fill="none" stroke="#7c4dff" stroke-width="3" rx="10"/><text x="710" y="235" text-anchor="middle" font-family="Segoe UI" font-size="16" fill="#ffffff">External Brain</text><rect x="250" y="320" width="400" height="60" fill="none" stroke="#c62828" stroke-width="3" rx="10"/><text x="450" y="360" text-anchor="middle" font-family="Segoe UI" font-size="16" fill="#ffffff">Civilization Layer</text><defs><marker id="arrow-white" markerWidth="10" markerHeight="10" refX="8" refY="3" orient="auto"><path d="M0,0 L8,3 L0,6 z" fill="#ffffff"/></marker></defs><line x1="450" y1="140" x2="450" y2="190" stroke="#ffffff" stroke-width="2" marker-end="url(#arrow-white)"/><line x1="190" y1="270" x2="450" y2="320" stroke="#ffffff" stroke-width="2" marker-end="url(#arrow-white)"/><line x1="450" y1="270" x2="450" y2="320" stroke="#ffffff" stroke-width="2" marker-end="url(#arrow-white)"/><line x1="710" y1="270" x2="450" y2="320" stroke="#ffffff" stroke-width="2" marker-end="url(#arrow-white)"/></svg>
