<svg width="1100" height="480" xmlns="http://www.w3.org/2000/svg">

<rect width="1100" height="480" fill="#071a34"/>

<text x="550" y="40" text-anchor="middle" fill="#ffffff" font-size="22">
MoCKA Knowledge Gate
</text>

<text x="550" y="65" text-anchor="middle" fill="#c7d4e2" font-size="14">
Institutional Memory Infrastructure for Verifiable AI Research
</text>

<rect x="450" y="90" width="200" height="70" fill="#000000"/>
<text x="550" y="120" text-anchor="middle" fill="#ffffff" font-size="16">Knowledge Gate</text>
<text x="550" y="140" text-anchor="middle" fill="#cccccc" font-size="13">institutional archive</text>

<rect x="120" y="230" width="180" height="70" fill="#000000"/>
<text x="210" y="260" text-anchor="middle" fill="#ffffff" font-size="16">Experiment</text>
<text x="210" y="280" text-anchor="middle" fill="#cccccc" font-size="13">AI research</text>

<rect x="460" y="230" width="180" height="70" fill="#000000"/>
<text x="550" y="260" text-anchor="middle" fill="#ffffff" font-size="16">Experiment Registry</text>
<text x="550" y="280" text-anchor="middle" fill="#cccccc" font-size="13">metadata / logs</text>

<rect x="800" y="230" width="180" height="70" fill="#000000"/>
<text x="890" y="260" text-anchor="middle" fill="#ffffff" font-size="16">Research Verification</text>
<text x="890" y="280" text-anchor="middle" fill="#cccccc" font-size="13">evidence validation</text>

<rect x="450" y="370" width="200" height="70" fill="#000000"/>
<text x="550" y="400" text-anchor="middle" fill="#ffffff" font-size="16">Institutional Memory</text>
<text x="550" y="420" text-anchor="middle" fill="#cccccc" font-size="13">traceable knowledge</text>

<path d="M300 265 C360 265 420 265 460 265" stroke="#4da3ff" stroke-width="3" fill="none"/>
<path d="M640 265 C700 265 760 265 800 265" stroke="#4da3ff" stroke-width="3" fill="none"/>

<path d="M890 300 C820 340 680 360 550 370" stroke="#ffb454" stroke-width="3" fill="none"/>
<path d="M550 300 C550 330 550 340 550 370" stroke="#ffb454" stroke-width="3" fill="none"/>
<path d="M210 300 C280 340 420 360 550 370" stroke="#ffb454" stroke-width="3" fill="none"/>

<path d="M550 160 C550 190 550 200 550 230" stroke="#5fd3bc" stroke-width="2" fill="none"/>
<path d="M550 160 C450 190 350 200 210 230" stroke="#5fd3bc" stroke-width="2" fill="none"/>
<path d="M550 160 C650 190 750 200 890 230" stroke="#5fd3bc" stroke-width="2" fill="none"/>

</svg>

