<svg viewBox="0 0 900 260" width="900" height="260" xmlns="http://www.w3.org/2000/svg">
  <rect width="900" height="260" fill="#ffffff"/>
  <text x="450" y="35" text-anchor="middle" font-family="Segoe UI, Arial" font-size="20" fill="#222222">研究知識フロー</text>
  <rect x="60" y="80" width="180" height="80" fill="#1e6bff" rx="10"/>
  <text x="150" y="110" text-anchor="middle" font-family="Segoe UI, Arial" font-size="16" fill="#ffffff">実行</text>
  <text x="150" y="130" text-anchor="middle" font-family="Segoe UI, Arial" font-size="12" fill="#e6f0ff">MoCKA Core</text>
  <rect x="260" y="80" width="180" height="80" fill="#ff8c1a" rx="10"/>
  <text x="350" y="110" text-anchor="middle" font-family="Segoe UI, Arial" font-size="16" fill="#ffffff">検証</text>
  <text x="350" y="130" text-anchor="middle" font-family="Segoe UI, Arial" font-size="12" fill="#fff4e6">Validation</text>
  <rect x="460" y="80" width="200" height="80" fill="#19b37c" rx="10"/>
  <text x="560" y="110" text-anchor="middle" font-family="Segoe UI, Arial" font-size="16" fill="#ffffff">制度化</text>
  <text x="560" y="130" text-anchor="middle" font-family="Segoe UI, Arial" font-size="12" fill="#e9fff6">Knowledge Gate</text>
  <rect x="680" y="80" width="180" height="80" fill="#7b5cff" rx="10"/>
  <text x="770" y="110" text-anchor="middle" font-family="Segoe UI, Arial" font-size="16" fill="#ffffff">再利用・ガバナンス</text>
  <text x="770" y="130" text-anchor="middle" font-family="Segoe UI, Arial" font-size="12" fill="#f3efff">Future Research</text>
  <defs>
    <marker id="arrow" markerWidth="10" markerHeight="10" refX="8" refY="3" orient="auto">
      <path d="M0,0 L8,3 L0,6 z" fill="#555555"/>
    </marker>
  </defs>
  <line x1="240" y1="120" x2="260" y2="120" stroke="#555555" stroke-width="2" marker-end="url(#arrow)"/>
  <line x1="440" y1="120" x2="460" y2="120" stroke="#555555" stroke-width="2" marker-end="url(#arrow)"/>
  <line x1="660" y1="120" x2="680" y2="120" stroke="#555555" stroke-width="2" marker-end="url(#arrow)"/>
  <path d="M770,160 C770,200 450,200 450,160" fill="none" stroke="#999999" stroke-width="2" marker-end="url(#arrow)"/>
  <text x="450" y="210" text-anchor="middle" font-family="Segoe UI, Arial" font-size="11" fill="#777777">制度的記憶は次の研究へ循環する</text>
</svg>
